<svg xmlns="http://www.w3.org/2000/svg" version="1.1" xmlns:xlink="http://www.w3.org/1999/xlink" xmlns:svgjs="http://svgjs.dev/svgjs" width="1000" height="1027" viewBox="0 0 1000 1027"><g transform="matrix(1,0,0,1,-0.6060606060606233,-0.29064974064976923)"><svg viewBox="0 0 396 407" data-background-color="#ffffff" preserveAspectRatio="xMidYMid meet" height="1027" width="1000" xmlns="http://www.w3.org/2000/svg" xmlns:xlink="http://www.w3.org/1999/xlink"><g id="tight-bounds" transform="matrix(1,0,0,1,0.2400000000000091,79.89999999999998)"><svg viewBox="0 0 395.52 247.2" height="247.2" width="395.52"><g><svg></svg></g><g><svg viewBox="0 0 395.52 247.2" height="247.2" width="395.52"><g transform="matrix(1,0,0,1,131.51575064935065,47.215199999999996)"><svg viewBox="0 0 132.4884987012987 152.7696" height="152.7696" width="132.4884987012987"><g><svg viewBox="0 0 132.4884987012987 152.7696" height="152.7696" width="132.4884987012987"><g><svg viewBox="0 0 132.4884987012987 152.7696" height="152.7696" width="132.4884987012987"><g><svg viewBox="0 0 132.4884987012987 152.7696" height="152.7696" width="132.4884987012987"><g><svg viewBox="0 0 132.4884987012987 152.7696" height="152.7696" width="132.4884987012987"><g><svg viewBox="0 0 132.4884987012987 152.7696" height="152.7696" width="132.4884987012987"><g transform="matrix(1,0,0,1,0,0)"><svg width="132.4884987012987" viewBox="0 -34.650001525878906 30.049999237060547 34.650001525878906" height="152.7696" data-palette-color="#0023ff"><path d="M15.15-6.4L21.65-34.65 30.05-34.65 20.05 0 9.95 0 0-34.65 8.7-34.65 15.15-6.4Z" opacity="1" transform="matrix(1,0,0,1,0,0)" fill="#0023ff" class="undefined-text-0" data-fill-palette-color="primary" id="text-0"></path></svg></g></svg></g></svg></g></svg></g><g></g></svg></g></svg></g></svg></g><g><path d="M106.894 11.15A66.244 66.244 0 0 1 288.626 11.15L274.85 11.15A52.467 52.467 0 0 0 120.67 11.15L106.894 11.15M106.894 236.05A66.244 66.244 0 0 0 288.626 236.05L274.85 236.05A52.467 52.467 0 0 1 120.67 236.05L106.894 236.05" fill="#0023ff" stroke="transparent" data-fill-palette-color="tertiary"></path></g></svg></g><defs></defs></svg><rect width="395.52" height="247.2" fill="none" stroke="none" visibility="hidden"></rect></g></svg></g></svg>